<svg viewBox="0 0 783 313" fill="none" xmlns="http://www.w3.org/2000/svg">
<path d="M379.694 200.151C375.389 204.24 370.396 207.649 364.714 210.034C359.202 212.42 353.002 213.613 346.459 213.613C343.015 213.613 339.742 213.273 336.644 212.591C333.544 211.91 330.444 210.887 327.517 209.694C324.589 208.332 321.834 206.797 319.251 205.093C316.668 203.218 314.257 201.173 312.191 198.958L393.643 167.774L428.256 154.482C426.362 142.554 422.057 131.307 415.514 121.593C400.704 99.4403 375.217 84.9559 346.459 84.9559C300.825 84.9559 263.629 121.764 263.629 166.921C263.629 171.182 263.973 175.272 264.662 179.362C266.557 191.29 270.862 202.538 277.405 212.25C281.194 217.703 285.499 222.815 290.492 227.246C295.488 231.678 300.825 235.596 306.852 238.834C312.707 242.071 319.08 244.628 325.794 246.331C332.51 248.035 339.399 248.888 346.631 248.888C357.996 248.888 369.018 246.672 378.833 242.413C388.822 238.323 397.604 232.187 405.18 224.861C412.759 217.363 418.785 208.672 422.918 198.788C424.639 194.698 426.017 190.267 427.051 185.837H389.51C387.272 191.29 383.999 196.061 379.694 200.151ZM346.631 120.06C360.063 120.06 372.289 125.854 380.901 134.715L299.447 165.9C299.963 140.679 320.973 120.06 346.631 120.06Z" fill="#343CED"/>
<path d="M229.807 180.578L229.635 0H193.608L193.78 179.72C193.78 217.655 219.293 244.604 256.526 247.35V211.99C240.841 209.415 229.807 197.056 229.807 180.578Z" fill="#343CED"/>
<path d="M229.412 180.916L229.239 0.338254H193.212L193.385 180.058C193.385 217.993 218.897 244.942 256.131 247.688V212.328C240.445 209.754 229.412 197.395 229.412 180.916Z" fill="#343CED"/>
<path d="M610.841 164.016C609.092 120.391 572.202 85.2877 526.918 85.2877C480.586 85.2877 442.821 122.096 442.821 167.253C442.821 212.41 480.586 249.22 526.918 249.22C544.752 249.22 561.362 243.766 574.998 234.393V247.686H611.19L610.841 164.356V164.016ZM526.918 214.116C500.517 214.116 479.012 193.156 479.012 167.424C479.012 141.693 500.517 120.732 526.918 120.732C553.319 120.732 574.824 141.692 574.824 167.424C574.824 193.156 553.319 214.116 526.918 214.116Z" fill="#343CED"/>
<path d="M705.218 84.3566C662.544 84.3566 627.95 118.739 627.95 161.153V248.113H664.682V161.096C664.682 139.04 682.671 121.16 704.862 121.16H705.574C727.765 121.16 745.754 139.04 745.754 161.096V248.113H782.486V161.153C782.486 118.739 747.892 84.3566 705.218 84.3566Z" fill="#343CED"/>
<path fill-rule="evenodd" clip-rule="evenodd" d="M118.143 92.119L141.683 62.1729L170.249 84.3547L146.881 114.081C158.944 128.418 166.205 146.884 166.205 167.035C166.205 212.652 128.999 249.631 83.1026 249.631C37.2062 249.631 0 212.652 0 167.035C0 121.419 37.2062 84.4394 83.1026 84.4394C95.6223 84.4394 107.495 87.191 118.143 92.119ZM83.1026 214.158C56.9178 214.158 35.6909 193.06 35.6909 167.035C35.6909 141.01 56.9178 119.913 83.1026 119.913C109.287 119.913 130.514 141.01 130.514 167.035C130.514 193.06 109.287 214.158 83.1026 214.158ZM167.171 237.694C165.113 240.118 162.944 242.431 160.68 244.681C158.416 246.916 156.057 249.056 153.603 251.086C151.165 253.116 148.632 255.036 146.003 256.845C143.391 258.655 140.684 260.37 137.913 261.943C135.158 263.533 132.324 264.981 129.427 266.318C126.545 267.656 123.6 268.868 120.592 269.937C117.6 271.023 114.56 271.967 111.457 272.77C108.401 273.604 105.282 274.281 102.132 274.816C99.0125 275.366 95.846 275.775 92.6479 276.043C89.4971 276.311 86.3149 276.452 83.1008 276.452C79.8868 276.452 76.7045 276.311 73.5539 276.043C70.3557 275.775 67.1892 275.366 64.0702 274.816C60.9195 274.281 57.8006 273.604 54.7449 272.77L45.4196 307.358C49.4727 308.443 53.6208 309.356 57.8164 310.08C61.9487 310.804 66.1601 311.355 70.419 311.701C74.5988 312.063 78.8261 312.251 83.1009 312.251C87.3756 312.251 91.6029 312.063 95.7827 311.701C100.042 311.355 104.237 310.804 108.385 310.08C112.581 309.356 116.713 308.443 120.782 307.358C124.899 306.288 128.952 305.029 132.91 303.581C136.915 302.149 140.826 300.544 144.658 298.766C148.505 296.987 152.273 295.052 155.93 292.959C159.603 290.851 163.182 288.585 166.649 286.161C170.132 283.754 173.504 281.204 176.75 278.498C180.012 275.791 183.146 272.959 186.139 269.985C189.147 267.011 192.012 263.926 194.752 260.7C197.491 257.49 200.087 254.138 202.525 250.692L173.029 230.157C171.193 232.753 169.23 235.271 167.171 237.694Z" fill="#343CED"/>
</svg>
