<svg width="7306" height="1244" viewBox="0 0 7306 1244" fill="none" xmlns="http://www.w3.org/2000/svg">
<path d="M3623.55 425.528C3812.39 425.528 3877.01 544.716 3877.01 678.264C3877.01 811.812 3808.08 931 3623.55 931H3451.95V425.528H3623.55ZM3640.07 867.816C3759.26 867.816 3802.34 774.476 3802.34 678.264C3802.34 582.052 3759.26 488.712 3640.07 488.712H3526.62V867.816H3640.07ZM4303.84 742.166C4303.84 752.218 4303.12 759.398 4301.69 767.296H4027.41C4032.44 826.172 4072.65 873.56 4139.42 873.56C4188.96 873.56 4213.37 849.148 4226.3 806.786H4297.38C4282.3 874.996 4232.04 936.744 4137.98 936.744C4022.39 936.744 3959.2 851.302 3959.2 747.192C3959.2 636.62 4031 557.64 4136.55 557.64C4218.4 557.64 4303.84 611.49 4303.84 742.166ZM4031 709.856H4234.91C4230.61 656.006 4196.14 617.952 4140.14 617.952C4071.21 617.952 4041.05 660.314 4031 709.856ZM4351.46 563.384H4426.13L4523.78 854.892C4528.09 867.098 4529.52 877.15 4529.52 889.356C4529.52 893.664 4530.24 898.69 4535.27 898.69C4540.29 898.69 4541.01 893.664 4541.01 889.356C4541.01 877.15 4542.45 867.098 4546.76 854.892L4644.4 563.384H4719.08L4586.96 931H4483.57L4351.46 563.384ZM5111.17 742.166C5111.17 752.218 5110.45 759.398 5109.02 767.296H4834.74C4839.77 826.172 4879.98 873.56 4946.75 873.56C4996.29 873.56 5020.7 849.148 5033.63 806.786H5104.71C5089.63 874.996 5039.37 936.744 4945.31 936.744C4829.72 936.744 4766.53 851.302 4766.53 747.192C4766.53 636.62 4838.33 557.64 4943.88 557.64C5025.73 557.64 5111.17 611.49 5111.17 742.166ZM4838.33 709.856H5042.24C5037.94 656.006 5003.47 617.952 4947.47 617.952C4878.54 617.952 4848.38 660.314 4838.33 709.856ZM5204.74 414.04H5273.67V931H5204.74V414.04ZM5545.08 557.64C5656.37 557.64 5723.14 643.082 5723.14 747.192C5723.14 851.302 5656.37 936.744 5545.08 936.744C5433.79 936.744 5367.02 851.302 5367.02 747.192C5367.02 643.082 5433.79 557.64 5545.08 557.64ZM5545.08 873.56C5614.01 873.56 5654.22 816.838 5654.22 747.192C5654.22 677.546 5614.01 620.824 5545.08 620.824C5476.15 620.824 5435.94 677.546 5435.94 747.192C5435.94 816.838 5476.15 873.56 5545.08 873.56ZM5885.37 563.384V592.104C5885.37 605.746 5883.22 616.516 5878.19 631.594C5876.04 637.338 5871.73 644.518 5878.19 646.672C5883.94 648.826 5886.09 641.646 5886.81 639.492C5908.35 592.104 5951.43 557.64 6010.3 557.64C6105.8 557.64 6172.57 638.056 6172.57 747.192C6172.57 856.328 6105.8 936.744 6010.3 936.744C5952.86 936.744 5909.07 902.998 5886.81 853.456C5886.09 851.302 5883.94 845.558 5879.63 846.994C5872.45 849.148 5876.04 855.61 5878.19 861.354C5883.22 877.15 5885.37 887.202 5885.37 900.126V1068.86H5816.44V563.384H5885.37ZM5995.94 873.56C6067.74 873.56 6103.64 815.402 6103.64 747.192C6103.64 678.982 6067.74 620.824 5995.94 620.824C5930.61 620.824 5885.37 678.982 5885.37 747.192C5885.37 815.402 5930.61 873.56 5995.94 873.56ZM6601.72 742.166C6601.72 752.218 6601 759.398 6599.57 767.296H6325.29C6330.32 826.172 6370.53 873.56 6437.3 873.56C6486.84 873.56 6511.25 849.148 6524.18 806.786H6595.26C6580.18 874.996 6529.92 936.744 6435.86 936.744C6320.27 936.744 6257.08 851.302 6257.08 747.192C6257.08 636.62 6328.88 557.64 6434.43 557.64C6516.28 557.64 6601.72 611.49 6601.72 742.166ZM6328.88 709.856H6532.79C6528.49 656.006 6494.02 617.952 6438.02 617.952C6369.09 617.952 6338.93 660.314 6328.88 709.856ZM6758.48 648.826C6762.07 649.544 6764.22 645.954 6765.66 642.364C6788.63 583.488 6809.45 557.64 6902.08 557.64V628.004C6795.09 620.824 6764.22 658.878 6764.22 755.09V931H6695.29V563.384H6764.22V587.796C6764.22 602.874 6762.78 614.362 6756.32 635.902C6754.89 641.646 6752.73 647.39 6758.48 648.826ZM6960.64 803.196H7028.13C7028.85 831.198 7051.82 876.432 7123.62 876.432C7193.99 876.432 7213.37 848.43 7213.37 824.736C7213.37 791.708 7182.5 781.656 7098.49 773.04C7002.28 762.988 6972.13 719.19 6972.13 671.084C6972.13 615.798 7022.39 557.64 7122.91 557.64C7215.53 557.64 7265.79 610.772 7270.81 679.7H7203.32C7201.17 656.006 7185.37 617.952 7120.75 617.952C7062.59 617.952 7041.05 641.646 7041.05 666.058C7041.05 689.752 7054.7 705.548 7134.39 714.164C7233.48 724.934 7282.3 753.654 7282.3 813.966C7282.3 888.638 7221.27 936.744 7120.75 936.744C7020.95 936.744 6964.23 884.33 6960.64 803.196Z" fill="#D7FD48"/>
<path d="M1484.94 798.268C1468.15 814.226 1448.66 827.524 1426.49 836.832C1404.98 846.139 1380.79 850.794 1355.26 850.794C1341.82 850.794 1329.05 849.467 1316.96 846.808C1304.87 844.15 1292.77 840.16 1281.35 835.505C1269.93 830.188 1259.17 824.202 1249.1 817.553C1239.01 810.234 1229.6 802.259 1221.55 793.614L1539.36 671.943L1674.42 620.083C1667.04 573.54 1650.23 529.658 1624.7 491.758C1566.91 405.324 1467.47 348.81 1355.26 348.81C1177.2 348.81 1032.07 492.426 1032.07 668.615C1032.07 685.242 1033.4 701.199 1036.1 717.156C1043.49 763.696 1060.28 807.582 1085.82 845.477C1100.6 866.751 1117.4 886.699 1136.88 903.988C1156.38 921.278 1177.2 936.568 1200.72 949.204C1223.56 961.83 1248.42 971.812 1274.63 978.447C1300.83 985.102 1327.71 988.429 1355.93 988.429C1400.27 988.429 1443.28 979.784 1481.57 963.167C1520.55 947.204 1554.82 923.267 1584.38 894.68C1613.96 865.425 1637.47 831.515 1653.6 792.951C1660.31 776.994 1665.68 759.704 1669.72 742.421H1523.24C1514.51 763.696 1501.73 782.311 1484.94 798.268ZM1355.93 485.775C1408.34 485.775 1456.04 508.383 1489.65 542.956L1171.82 664.63C1173.83 566.226 1255.82 485.775 1355.93 485.775Z" fill="white"/>
<path d="M900.091 721.903L899.417 17.3389H758.843L759.517 718.557C759.517 866.567 859.064 971.719 1004.34 982.429V844.465C943.144 834.42 900.091 786.198 900.091 721.903Z" fill="white"/>
<path d="M898.552 723.222L897.878 18.6575H757.304L757.978 719.875C757.978 867.886 857.525 973.037 1002.8 983.747V845.783C941.604 835.739 898.552 787.517 898.552 723.222Z" fill="white"/>
<path d="M2386.86 657.286C2380.03 487.076 2236.09 350.111 2059.39 350.111C1878.61 350.111 1731.25 493.726 1731.25 669.916C1731.25 846.105 1878.61 989.728 2059.39 989.728C2128.98 989.728 2193.79 968.447 2247 931.877V983.738H2388.21L2386.86 658.613V657.286ZM2059.39 852.763C1956.38 852.763 1872.46 770.982 1872.46 670.585C1872.46 570.188 1956.38 488.407 2059.39 488.407C2162.41 488.407 2246.32 570.186 2246.32 670.585C2246.32 770.985 2162.41 852.763 2059.39 852.763Z" fill="white"/>
<path d="M2755.11 346.475C2588.59 346.475 2453.61 480.627 2453.61 646.113V985.406H2596.94V645.889C2596.94 559.834 2667.13 490.072 2753.71 490.072H2756.49C2843.08 490.072 2913.28 559.834 2913.28 645.889V985.406H3056.6V646.113C3056.6 480.627 2921.62 346.475 2755.11 346.475Z" fill="white"/>
<path fill-rule="evenodd" clip-rule="evenodd" d="M464.391 376.765L556.243 259.922L667.703 346.469L576.523 462.457C623.591 518.395 651.92 590.442 651.92 669.065C651.92 847.049 506.745 991.332 327.662 991.332C148.578 991.332 3.40234 847.048 3.40234 669.065C3.40234 491.083 148.578 346.799 327.662 346.799C376.514 346.799 422.843 357.535 464.391 376.765ZM327.662 852.924C225.491 852.924 142.665 770.608 142.665 669.065C142.665 567.523 225.491 485.206 327.662 485.206C429.832 485.206 512.658 567.523 512.658 669.065C512.658 770.608 429.832 852.924 327.662 852.924ZM655.694 944.761C647.663 954.217 639.199 963.24 630.366 972.014C621.531 980.733 612.326 989.083 602.751 997.009C593.237 1004.93 583.353 1012.42 573.098 1019.48C562.905 1026.54 552.341 1033.23 541.53 1039.37C530.781 1045.57 519.723 1051.22 508.417 1056.44C497.174 1061.66 485.684 1066.39 473.946 1070.56C462.27 1074.8 450.409 1078.48 438.3 1081.62C426.377 1084.87 414.208 1087.51 401.914 1089.6C389.744 1091.74 377.388 1093.34 364.91 1094.38C352.615 1095.43 340.198 1095.98 327.658 1095.98C315.117 1095.98 302.7 1095.43 290.407 1094.38C277.927 1093.34 265.572 1091.74 253.402 1089.6C241.109 1087.51 228.939 1084.87 217.016 1081.62L180.629 1216.56C196.444 1220.8 212.629 1224.36 229 1227.19C245.124 1230.01 261.556 1232.16 278.174 1233.51C294.484 1234.92 310.978 1235.66 327.658 1235.66C344.338 1235.66 360.832 1234.92 377.141 1233.51C393.759 1232.16 410.13 1230.01 426.316 1227.19C442.686 1224.36 458.81 1220.8 474.687 1216.56C490.749 1212.39 506.565 1207.48 522.008 1201.83C537.637 1196.24 552.897 1189.98 567.847 1183.04C582.859 1176.1 597.562 1168.55 611.832 1160.39C626.165 1152.16 640.126 1143.32 653.655 1133.86C667.246 1124.47 680.405 1114.52 693.069 1103.96C705.795 1093.4 718.026 1082.34 729.702 1070.74C741.44 1059.14 752.622 1047.11 763.31 1034.52C773.997 1021.99 784.128 1008.92 793.642 995.47L678.551 915.348C671.385 925.479 663.725 935.305 655.694 944.761Z" fill="white"/>
</svg>
