<svg width="7322" height="1250" viewBox="0 0 7322 1250" fill="none" xmlns="http://www.w3.org/2000/svg">
<path d="M3639.55 430.528C3828.39 430.528 3893.01 549.716 3893.01 683.264C3893.01 816.812 3824.08 936 3639.55 936H3467.95V430.528H3639.55ZM3656.07 872.816C3775.26 872.816 3818.34 779.476 3818.34 683.264C3818.34 587.052 3775.26 493.712 3656.07 493.712H3542.62V872.816H3656.07ZM4319.84 747.166C4319.84 757.218 4319.12 764.398 4317.69 772.296H4043.41C4048.44 831.172 4088.65 878.56 4155.42 878.56C4204.96 878.56 4229.37 854.148 4242.3 811.786H4313.38C4298.3 879.996 4248.04 941.744 4153.98 941.744C4038.39 941.744 3975.2 856.302 3975.2 752.192C3975.2 641.62 4047 562.64 4152.55 562.64C4234.4 562.64 4319.84 616.49 4319.84 747.166ZM4047 714.856H4250.91C4246.61 661.006 4212.14 622.952 4156.14 622.952C4087.21 622.952 4057.05 665.314 4047 714.856ZM4367.46 568.384H4442.13L4539.78 859.892C4544.09 872.098 4545.52 882.15 4545.52 894.356C4545.52 898.664 4546.24 903.69 4551.27 903.69C4556.29 903.69 4557.01 898.664 4557.01 894.356C4557.01 882.15 4558.45 872.098 4562.76 859.892L4660.4 568.384H4735.08L4602.96 936H4499.57L4367.46 568.384ZM5127.17 747.166C5127.17 757.218 5126.45 764.398 5125.02 772.296H4850.74C4855.77 831.172 4895.98 878.56 4962.75 878.56C5012.29 878.56 5036.7 854.148 5049.63 811.786H5120.71C5105.63 879.996 5055.37 941.744 4961.31 941.744C4845.72 941.744 4782.53 856.302 4782.53 752.192C4782.53 641.62 4854.33 562.64 4959.88 562.64C5041.73 562.64 5127.17 616.49 5127.17 747.166ZM4854.33 714.856H5058.24C5053.94 661.006 5019.47 622.952 4963.47 622.952C4894.54 622.952 4864.38 665.314 4854.33 714.856ZM5220.74 419.04H5289.67V936H5220.74V419.04ZM5561.08 562.64C5672.37 562.64 5739.14 648.082 5739.14 752.192C5739.14 856.302 5672.37 941.744 5561.08 941.744C5449.79 941.744 5383.02 856.302 5383.02 752.192C5383.02 648.082 5449.79 562.64 5561.08 562.64ZM5561.08 878.56C5630.01 878.56 5670.22 821.838 5670.22 752.192C5670.22 682.546 5630.01 625.824 5561.08 625.824C5492.15 625.824 5451.94 682.546 5451.94 752.192C5451.94 821.838 5492.15 878.56 5561.08 878.56ZM5901.37 568.384V597.104C5901.37 610.746 5899.22 621.516 5894.19 636.594C5892.04 642.338 5887.73 649.518 5894.19 651.672C5899.94 653.826 5902.09 646.646 5902.81 644.492C5924.35 597.104 5967.43 562.64 6026.3 562.64C6121.8 562.64 6188.57 643.056 6188.57 752.192C6188.57 861.328 6121.8 941.744 6026.3 941.744C5968.86 941.744 5925.07 907.998 5902.81 858.456C5902.09 856.302 5899.94 850.558 5895.63 851.994C5888.45 854.148 5892.04 860.61 5894.19 866.354C5899.22 882.15 5901.37 892.202 5901.37 905.126V1073.86H5832.44V568.384H5901.37ZM6011.94 878.56C6083.74 878.56 6119.64 820.402 6119.64 752.192C6119.64 683.982 6083.74 625.824 6011.94 625.824C5946.61 625.824 5901.37 683.982 5901.37 752.192C5901.37 820.402 5946.61 878.56 6011.94 878.56ZM6617.72 747.166C6617.72 757.218 6617 764.398 6615.57 772.296H6341.29C6346.32 831.172 6386.53 878.56 6453.3 878.56C6502.84 878.56 6527.25 854.148 6540.18 811.786H6611.26C6596.18 879.996 6545.92 941.744 6451.86 941.744C6336.27 941.744 6273.08 856.302 6273.08 752.192C6273.08 641.62 6344.88 562.64 6450.43 562.64C6532.28 562.64 6617.72 616.49 6617.72 747.166ZM6344.88 714.856H6548.79C6544.49 661.006 6510.02 622.952 6454.02 622.952C6385.09 622.952 6354.93 665.314 6344.88 714.856ZM6774.48 653.826C6778.07 654.544 6780.22 650.954 6781.66 647.364C6804.63 588.488 6825.45 562.64 6918.08 562.64V633.004C6811.09 625.824 6780.22 663.878 6780.22 760.09V936H6711.29V568.384H6780.22V592.796C6780.22 607.874 6778.78 619.362 6772.32 640.902C6770.89 646.646 6768.73 652.39 6774.48 653.826ZM6976.64 808.196H7044.13C7044.85 836.198 7067.82 881.432 7139.62 881.432C7209.99 881.432 7229.37 853.43 7229.37 829.736C7229.37 796.708 7198.5 786.656 7114.49 778.04C7018.28 767.988 6988.13 724.19 6988.13 676.084C6988.13 620.798 7038.39 562.64 7138.91 562.64C7231.53 562.64 7281.79 615.772 7286.81 684.7H7219.32C7217.17 661.006 7201.37 622.952 7136.75 622.952C7078.59 622.952 7057.05 646.646 7057.05 671.058C7057.05 694.752 7070.7 710.548 7150.39 719.164C7249.48 729.934 7298.3 758.654 7298.3 818.966C7298.3 893.638 7237.27 941.744 7136.75 941.744C7036.95 941.744 6980.23 889.33 6976.64 808.196Z" fill="#1E1E1E"/>
<path d="M1492.94 789.268C1476.15 805.226 1456.66 818.524 1434.49 827.832C1412.98 837.139 1388.79 841.794 1363.26 841.794C1349.82 841.794 1337.05 840.467 1324.96 837.808C1312.87 835.15 1300.77 831.16 1289.35 826.505C1277.93 821.188 1267.17 815.202 1257.1 808.553C1247.01 801.234 1237.6 793.259 1229.55 784.614L1547.36 662.943L1682.42 611.083C1675.04 564.54 1658.23 520.658 1632.7 482.758C1574.91 396.324 1475.47 339.81 1363.26 339.81C1185.2 339.81 1040.07 483.426 1040.07 659.615C1040.07 676.242 1041.4 692.199 1044.1 708.156C1051.49 754.696 1068.28 798.582 1093.82 836.477C1108.6 857.751 1125.4 877.699 1144.88 894.988C1164.38 912.278 1185.2 927.568 1208.72 940.204C1231.56 952.83 1256.42 962.812 1282.63 969.447C1308.83 976.102 1335.71 979.429 1363.93 979.429C1408.27 979.429 1451.28 970.784 1489.57 954.167C1528.55 938.204 1562.82 914.267 1592.38 885.68C1621.96 856.425 1645.47 822.515 1661.6 783.951C1668.31 767.994 1673.68 750.704 1677.72 733.421H1531.24C1522.51 754.696 1509.73 773.311 1492.94 789.268ZM1363.93 476.775C1416.34 476.775 1464.04 499.383 1497.65 533.956L1179.82 655.63C1181.83 557.226 1263.82 476.775 1363.93 476.775Z" fill="#343CED"/>
<path d="M908.091 712.903L907.417 8.33887H766.843L767.517 709.557C767.517 857.567 867.065 962.719 1012.34 973.429V835.465C951.144 825.42 908.091 777.198 908.091 712.903Z" fill="#343CED"/>
<path d="M906.552 714.222L905.878 9.65747H765.304L765.978 710.875C765.978 858.886 865.525 964.037 1010.8 974.747V836.783C949.604 826.739 906.552 778.517 906.552 714.222Z" fill="#343CED"/>
<path d="M2394.86 648.286C2388.03 478.076 2244.09 341.111 2067.39 341.111C1886.61 341.111 1739.25 484.726 1739.25 660.916C1739.25 837.105 1886.61 980.728 2067.39 980.728C2136.98 980.728 2201.79 959.447 2255 922.877V974.738H2396.21L2394.86 649.613V648.286ZM2067.39 843.763C1964.38 843.763 1880.46 761.982 1880.46 661.585C1880.46 561.188 1964.38 479.407 2067.39 479.407C2170.41 479.407 2254.32 561.186 2254.32 661.585C2254.32 761.985 2170.41 843.763 2067.39 843.763Z" fill="#343CED"/>
<path d="M2763.11 337.475C2596.59 337.475 2461.61 471.627 2461.61 637.113V976.406H2604.94V636.889C2604.94 550.834 2675.13 481.072 2761.71 481.072H2764.49C2851.08 481.072 2921.28 550.834 2921.28 636.889V976.406H3064.6V637.113C3064.6 471.627 2929.62 337.475 2763.11 337.475Z" fill="#343CED"/>
<path fillRule="evenodd" clip-rule="evenodd" d="M472.391 367.765L564.243 250.923L675.703 337.469L584.523 453.457C631.591 509.395 659.92 581.442 659.92 660.065C659.92 838.049 514.745 982.332 335.662 982.332C156.578 982.332 11.4023 838.048 11.4023 660.065C11.4023 482.083 156.578 337.799 335.662 337.799C384.514 337.799 430.843 348.536 472.391 367.765ZM335.662 843.924C233.491 843.924 150.665 761.608 150.665 660.065C150.665 558.523 233.491 476.206 335.662 476.206C437.832 476.206 520.658 558.523 520.658 660.065C520.658 761.608 437.832 843.924 335.662 843.924ZM663.694 935.761C655.663 945.217 647.199 954.24 638.366 963.014C629.531 971.733 620.326 980.083 610.751 988.009C601.237 995.926 591.353 1003.42 581.097 1010.48C570.905 1017.54 560.341 1024.23 549.53 1030.37C538.781 1036.57 527.723 1042.22 516.417 1047.44C505.174 1052.66 493.684 1057.39 481.946 1061.56C470.27 1065.8 458.409 1069.48 446.3 1072.62C434.377 1075.87 422.208 1078.51 409.914 1080.6C397.744 1082.74 385.388 1084.34 372.91 1085.38C360.615 1086.43 348.198 1086.98 335.658 1086.98C323.117 1086.98 310.7 1086.43 298.407 1085.38C285.927 1084.34 273.572 1082.74 261.402 1080.6C249.109 1078.51 236.939 1075.87 225.016 1072.62L188.629 1207.56C204.444 1211.8 220.629 1215.36 237 1218.19C253.124 1221.01 269.556 1223.16 286.174 1224.51C302.484 1225.92 318.978 1226.66 335.658 1226.66C352.338 1226.66 368.832 1225.92 385.141 1224.51C401.759 1223.16 418.13 1221.01 434.316 1218.19C450.686 1215.36 466.81 1211.8 482.687 1207.56C498.749 1203.39 514.565 1198.48 530.008 1192.83C545.637 1187.24 560.897 1180.98 575.847 1174.04C590.859 1167.1 605.562 1159.55 619.832 1151.39C634.164 1143.16 648.126 1134.32 661.655 1124.86C675.246 1115.47 688.405 1105.52 701.069 1094.96C713.795 1084.4 726.026 1073.34 737.702 1061.74C749.44 1050.14 760.622 1038.11 771.31 1025.52C781.997 1013 792.128 999.917 801.641 986.47L686.551 906.348C679.385 916.479 671.725 926.305 663.694 935.761Z" fill="#343CED"/>
</svg>
