<svg viewBox="0 0 87 36" fill="none" xmlns="http://www.w3.org/2000/svg">
<path d="M69.0822 18.5302C68.8833 13.5461 64.6862 9.5354 59.5344 9.5354C54.2633 9.5354 49.9668 13.7408 49.9668 18.9001C49.9668 24.0595 54.2633 28.2649 59.5344 28.2649C61.5633 28.2649 63.453 27.6419 65.0045 26.5711V28.0897H69.1219L69.0822 18.5692V18.5302ZM59.5344 24.2542C56.5309 24.2542 54.0843 21.8595 54.0843 18.9196C54.0843 15.9797 56.5309 13.585 59.5344 13.585C62.538 13.585 64.9846 15.9797 64.9846 18.9196C64.9846 21.8595 62.538 24.2542 59.5344 24.2542Z" fill="#4718F2"/>
<path d="M42.7393 22.6967C42.2496 23.1639 41.6814 23.5533 41.0349 23.8259C40.408 24.0984 39.7027 24.2347 38.9582 24.2347C38.5664 24.2347 38.1941 24.1958 37.8415 24.1179C37.4888 24.04 37.1362 23.9232 36.8031 23.7869C36.4701 23.6312 36.1566 23.456 35.8627 23.2613C35.5689 23.0471 35.2946 22.8135 35.0595 22.5604L44.3263 18.9975L48.2642 17.4789C48.0486 16.116 47.5589 14.8311 46.8144 13.7213C45.1295 11.1903 42.23 9.5354 38.9582 9.5354C33.7664 9.5354 29.5347 13.7408 29.5347 18.9001C29.5347 19.3869 29.5738 19.8541 29.6522 20.3214C29.8677 21.6843 30.3575 22.9692 31.102 24.079C31.533 24.702 32.0228 25.2861 32.5909 25.7923C33.1591 26.2985 33.7664 26.7463 34.4521 27.1162C35.1182 27.4861 35.8431 27.7782 36.6072 27.9728C37.3713 28.1675 38.1549 28.2649 38.9778 28.2649C40.2708 28.2649 41.5247 28.0118 42.6414 27.525C43.7777 27.0578 44.7769 26.3569 45.6389 25.5197C46.5009 24.6631 47.1866 23.6701 47.6568 22.5409C47.8527 22.0736 48.0095 21.5674 48.127 21.0612H43.8561C43.6014 21.6843 43.2291 22.2294 42.7393 22.6967ZM38.9778 13.5461C40.5059 13.5461 41.8969 14.208 42.8765 15.2204L33.6097 18.7833C33.6685 15.9019 36.0586 13.5461 38.9778 13.5461Z" fill="#4718F2"/>
<path d="M82.8814 28.1229H86.9802L86.9998 17.1601C86.9998 12.4533 83.96 9.39392 79.2728 9.39392C74.6641 9.39392 71.4478 12.5906 71.4478 17.1601L71.4282 28.1033H75.527L75.5466 17.0424C75.5466 14.9244 77.1156 13.3751 79.2728 13.3751C82.6264 13.3751 82.901 16.1795 82.901 17.0424L82.8814 28.1229Z" fill="#4718F2"/>
<path d="M19.2617 9.45282L16.065 6.96216L13.4763 10.3942C9.55399 8.53108 4.72955 9.5705 1.98393 13.1202C-1.21275 17.2386 -0.467511 23.1613 3.65091 26.358C5.21984 27.5739 7.04371 28.2211 8.8872 28.3191C11.8878 28.4956 14.9275 27.2405 16.8887 24.691C19.6539 21.1413 19.4578 16.1992 16.6926 12.8652L19.2617 9.45282ZM13.6724 22.2003C11.8485 24.5341 8.47535 24.9656 6.12197 23.1417C3.78819 21.3178 3.35674 17.925 5.18061 15.5912C6.06313 14.4538 7.33788 13.7281 8.74991 13.5516C9.08331 13.5124 9.41671 13.4928 9.7501 13.5124C10.8287 13.5713 11.8681 13.9635 12.7311 14.6303C15.0648 16.4738 15.4963 19.8666 13.6724 22.2003Z" fill="#4718F2"/>
<path d="M19.4577 26.3972C18.9282 27.0836 18.3398 27.6915 17.6927 28.2603C17.0651 28.7898 16.3787 29.2801 15.6531 29.6919C14.9471 30.0841 14.1822 30.4175 13.4174 30.6725C12.6525 30.9274 11.8484 31.1039 11.0444 31.202C10.2403 31.3 9.43621 31.3393 8.61252 31.2804C7.78884 31.2216 6.98477 31.0843 6.2003 30.8882L6.0238 31.5354L5.21973 34.8105C6.23953 35.0851 7.27894 35.242 8.33796 35.3204C8.37719 35.3204 8.43602 35.3204 8.47524 35.3204C9.49504 35.3792 10.5345 35.34 11.5346 35.2224C12.5937 35.0851 13.6527 34.8497 14.6725 34.5163C15.6923 34.1829 16.6925 33.7515 17.6338 33.222C18.5948 32.6925 19.4969 32.0453 20.3402 31.3393C21.2031 30.6136 21.9876 29.79 22.674 28.8878C22.7721 28.7702 22.8505 28.6329 22.9486 28.4956L19.693 26.0834C19.595 26.1814 19.5362 26.2991 19.4577 26.3972Z" fill="#4718F2"/>
<path d="M26.0471 20.6313L26.0275 0H21.9287L21.9483 20.5333C21.9483 24.8674 24.8508 27.9464 29.0869 28.2602V24.2203C27.3023 23.9261 26.0471 22.5141 26.0471 20.6313Z" fill="#4718F2"/>
</svg>
