<svg width="16" height="16" viewBox="0 0 16 16" fill="none" xmlns="http://www.w3.org/2000/svg">
<path fill-rule="evenodd" clip-rule="evenodd" d="M2.3014 13.6986H8.00003C11.1473 13.6986 13.6987 11.1473 13.6987 8C13.6987 4.85273 11.1473 2.30137 8.00003 2.30137C4.85276 2.30137 2.3014 4.85273 2.3014 8V13.6986ZM8.00003 0.986298C4.12647 0.986298 0.986328 4.12644 0.986328 8V13.6986V15.0137H2.3014H8.00003C11.8736 15.0137 15.0137 11.8736 15.0137 8C15.0137 4.12644 11.8736 0.986298 8.00003 0.986298ZM9.85682 7.64983C9.9699 7.23771 10.1918 6.86643 10.4869 6.56632C10.5022 6.55077 10.5176 6.53542 10.5333 6.52026C10.8345 6.22888 11.2063 6.0096 11.6134 5.89239C11.2068 5.77528 10.8354 5.55832 10.5344 5.26946C10.5177 5.25344 10.5012 5.23719 10.485 5.22072C10.1909 4.92291 9.96961 4.55424 9.85682 4.14298C9.74409 4.5538 9.5247 4.92215 9.2326 5.21981C9.21563 5.2371 9.19842 5.25415 9.18096 5.27096C8.8818 5.5591 8.51249 5.77552 8.10659 5.89239C8.51305 6.00945 8.8828 6.22816 9.18217 6.51878C9.19858 6.53471 9.21478 6.55085 9.23075 6.56721C9.52381 6.86716 9.7439 7.2381 9.85682 7.64983ZM7.98235 10.3103C7.49062 10.8105 7.1207 11.4293 6.93224 12.1162C6.74404 11.4299 6.37723 10.8117 5.8888 10.3118C5.86217 10.2845 5.83517 10.2576 5.80782 10.2311C5.30888 9.74671 4.69263 9.38218 4.0152 9.18708C4.6917 8.99231 5.3072 8.63161 5.80581 8.15138C5.8349 8.12336 5.8636 8.09494 5.89188 8.06612C6.37871 7.57002 6.74437 6.95611 6.93224 6.2714C7.12023 6.95684 7.48896 7.57129 7.97917 8.06765C8.00627 8.09509 8.03374 8.12217 8.06157 8.14888C8.56322 8.6303 9.18222 8.9919 9.85995 9.18708C9.18141 9.38244 8.56172 9.7479 8.05972 10.2335C8.03361 10.2588 8.00781 10.2844 7.98235 10.3103Z" fill="#333333"/>
</svg>
