<svg width="16" height="16" viewBox="0 0 16 16" fill="none" xmlns="http://www.w3.org/2000/svg">
<path d="M11.121 2.78317C11.121 2.35064 11.4716 2 11.9042 2C12.4028 2 12.8928 2.1002 13.3698 2.29096C13.8888 2.49857 14.2883 2.80667 14.6508 3.16918C15.0133 3.5317 15.3214 3.93121 15.5291 4.45023C15.7198 4.92714 15.82 5.41717 15.82 5.91584C15.82 6.41448 15.7198 6.90451 15.5291 7.38146C15.324 7.89397 15.021 8.28994 14.6644 8.64886L13.8933 9.49703C13.885 9.5062 13.8764 9.5152 13.8676 9.52397L11.3615 12.0301C10.999 12.3926 10.5995 12.7007 10.0805 12.9084C9.60352 13.0991 9.11349 13.1993 8.61485 13.1993C8.11621 13.1993 7.62618 13.0991 7.14923 12.9084C6.63022 12.7007 6.23071 12.3926 5.86819 12.0301C5.50567 11.6676 5.19758 11.2681 4.98997 10.7491C4.79554 10.263 4.69901 9.77247 4.69901 9.20515C4.69901 8.7065 4.79921 8.21648 4.98997 7.73953C5.19758 7.22052 5.50567 6.82103 5.86819 6.4585L6.72969 5.59701C7.03551 5.29116 7.53142 5.29116 7.83724 5.59701C8.14307 5.90286 8.14307 6.39874 7.83724 6.70457L6.97576 7.56605C6.71175 7.83006 6.54995 8.0571 6.4443 8.32126C6.32181 8.62748 6.26535 8.92062 6.26535 9.20515C6.26535 9.57762 6.32542 9.87029 6.4443 10.1673C6.54995 10.4315 6.71175 10.6586 6.97576 10.9226C7.23976 11.1866 7.4668 11.3484 7.73097 11.454C8.03719 11.5765 8.33033 11.633 8.61485 11.633C8.89938 11.633 9.19252 11.5765 9.49873 11.454C9.7629 11.3484 9.98994 11.1866 10.2539 10.9226L12.7469 8.42958L13.5176 7.58187C13.5259 7.57271 13.5345 7.56371 13.5433 7.55493C13.8073 7.29093 13.9691 7.06389 14.0747 6.79972C14.1972 6.49351 14.2537 6.20037 14.2537 5.91584C14.2537 5.63135 14.1972 5.33821 14.0747 5.03195C13.9691 4.7678 13.8073 4.54077 13.5433 4.27676C13.2792 4.01273 13.0522 3.85093 12.788 3.74527C12.4818 3.62277 12.1887 3.56634 11.9042 3.56634C11.4716 3.56634 11.121 3.2157 11.121 2.78317ZM7.28346 3.95792C6.99894 3.95792 6.7058 4.01436 6.39958 4.13686C6.13542 4.24252 5.90839 4.40433 5.64438 4.66834L3.0731 7.23963L2.30247 8.08733C2.29411 8.09649 2.28554 8.1055 2.27676 8.11427C2.01274 8.37828 1.85093 8.60532 1.74527 8.86948C1.62277 9.1757 1.56634 9.46884 1.56634 9.75337C1.56634 10.0379 1.62277 10.331 1.74527 10.6372C1.85093 10.9014 2.01274 11.1285 2.27676 11.3925C2.54077 11.6565 2.76779 11.8183 3.03195 11.9239C3.33821 12.0464 3.63135 12.1029 3.91584 12.1029C4.34837 12.1029 4.69901 12.4535 4.69901 12.886C4.69901 13.3186 4.34837 13.6692 3.91584 13.6692C3.41717 13.6692 2.92714 13.569 2.45023 13.3783C1.93121 13.1706 1.5317 12.8625 1.16918 12.5C0.806663 12.1375 0.498573 11.738 0.290963 11.219C0.100199 10.742 0 10.252 0 9.75337C0 9.25472 0.100199 8.76469 0.290963 8.28774C0.495965 7.77524 0.798957 7.37927 1.15557 7.02034L1.92664 6.17217C1.935 6.16301 1.94357 6.154 1.95235 6.14523L4.53681 3.56077C4.89933 3.19825 5.29884 2.89016 5.81785 2.68255C6.29479 2.49178 6.78482 2.39158 7.28346 2.39158C7.78211 2.39158 8.27214 2.49178 8.74909 2.68255C9.26809 2.89016 9.66759 3.19825 10.0301 3.56077C10.3926 3.92329 10.7007 4.3228 10.9084 4.84181C11.0991 5.31872 11.1993 5.80875 11.1993 6.30743C11.1993 6.80607 11.0991 7.2961 10.9084 7.77305C10.7031 8.2861 10.3997 8.68238 10.0426 9.04162L9.1922 9.96928C8.89992 10.2881 8.40449 10.3096 8.08566 10.0174C7.76684 9.72517 7.7453 9.22974 8.0375 8.91091L8.89898 7.97111C8.90666 7.96273 8.91457 7.95451 8.92256 7.94652C9.18656 7.68251 9.34837 7.45547 9.45402 7.19131C9.5765 6.88509 9.63297 6.59195 9.63297 6.30743C9.63297 6.0229 9.5765 5.72979 9.45402 5.42353C9.34837 5.15938 9.18656 4.93235 8.92256 4.66834C8.65855 4.40433 8.43151 4.24252 8.16735 4.13686C7.86113 4.01436 7.56799 3.95792 7.28346 3.95792Z" fill="#333333"/>
</svg>
