<svg width="32" height="32" viewBox="0 0 32 32" fill="none" xmlns="http://www.w3.org/2000/svg">
  <path fill-rule="evenodd" d="M8.131733333333333 7.890000000000001C3.6478666666666664 7.890000000000001 0 11.528266666666667 0 16s3.648 8.11 8.131733333333333 8.11h15.736533333333334C28.35213333333333 24.11 32 20.471733333333333 32 16s-3.648 -8.11 -8.131733333333333 -8.11ZM7.969866666666666 10.468c0.6573333333333333 0.01653333333333333 1.3599999999999999 0.3328 1.6973333333333331 0.8304 0.48973333333333335 0.6122666666666666 0.6370666666666667 1.4223999999999999 1.1925333333333332 1.9909333333333334 0.7472 0.8157333333333333 1.5986666666666667 1.534 2.288133333333333 2.4026666666666667 0.6522666666666667 0.7938666666666667 1.1181333333333332 1.7249333333333334 1.5248 2.663333333333333 0.16586666666666666 0.31133333333333335 0.1676 0.6936 0.41333333333333333 0.9596 0.12106666666666667 0.1605333333333333 0.7127999999999999 0.5977333333333332 0.5844 0.7526666666666666 0.074 0.1605333333333333 0.6269333333333333 0.3813333333333333 0.4350666666666666 0.5369333333333333 -0.2592 0.05333333333333333 -0.5505333333333333 0.06346666666666667 -0.7487999999999999 -0.1432 -0.07319999999999999 0.16799999999999998 -0.244 0.07946666666666666 -0.3758666666666666 0.0576a5.333333333333333 5.333333333333333 0 0 0 -0.03333333333333333 0.09813333333333332c-0.43839999999999996 0.029199999999999997 -0.7672 -0.41679999999999995 -0.976 -0.7533333333333332 -0.41479999999999995 -0.224 -0.8855999999999999 -0.3602666666666666 -1.3093333333333332 -0.5946666666666667 -0.024266666666666666 0.38599999999999995 0.06026666666666666 0.8646666666666666 -0.308 1.1137333333333332 -0.018666666666666665 0.742 1.1248 0.08746666666666666 1.2296 0.6405333333333333 -0.08133333333333333 0.008933333333333333 -0.17146666666666666 -0.012666666666666666 -0.23653333333333332 0.04973333333333333 -0.2985333333333333 0.28959999999999997 -0.6406666666666666 -0.21933333333333332 -0.9846666666666667 -0.009333333333333332 -0.46186666666666665 0.23199999999999998 -0.5077333333333334 0.42146666666666666 -1.0794666666666666 0.46933333333333327 -0.031599999999999996 -0.04786666666666667 -0.019066666666666666 -0.07893333333333333 0.007866666666666666 -0.10813333333333333 0.16093333333333332 -0.18653333333333333 0.17266666666666666 -0.4061333333333333 0.4474666666666667 -0.48573333333333335 -0.2829333333333333 -0.04453333333333333 -0.5198666666666667 0.11106666666666666 -0.7581333333333333 0.23426666666666665 -0.3097333333333333 0.12666666666666665 -0.3072 -0.28546666666666665 -0.7837333333333333 0.021866666666666666 -0.0528 -0.04293333333333333 -0.027733333333333332 -0.08199999999999999 0.0024 -0.1152 0.12106666666666667 -0.1476 0.28026666666666666 -0.16933333333333334 0.45999999999999996 -0.16106666666666666 -0.884 -0.4914666666666666 -1.3001333333333331 0.6009333333333333 -1.7084000000000001 0.0576 -0.12266666666666666 0.0324 -0.16866666666666666 0.1424 -0.246 0.22026666666666667 -0.06666666666666667 -0.07306666666666667 -0.016399999999999998 -0.1616 -0.0132 -0.2476 -0.07973333333333332 -0.03733333333333333 -0.1808 -0.05466666666666667 -0.1572 -0.1821333333333333 -0.15613333333333332 -0.05266666666666667 -0.2650666666666667 0.03933333333333333 -0.3813333333333333 0.12693333333333334 -0.10493333333333334 -0.08106666666666666 0.07093333333333332 -0.19893333333333332 0.10346666666666667 -0.2833333333333333 0.09359999999999999 -0.16213333333333332 0.30666666666666664 -0.03333333333333333 0.41479999999999995 -0.15013333333333334 0.30746666666666667 -0.1744 0.736 0.10853333333333333 1.0873333333333333 0.06066666666666666 0.27066666666666667 0.033999999999999996 0.6058666666666667 -0.24333333333333332 0.47013333333333335 -0.52 -0.28946666666666665 -0.36893333333333334 -0.23866666666666664 -0.8514666666666666 -0.2452 -1.2926666666666666 -0.03573333333333333 -0.2572 -0.6546666666666666 -0.5842666666666666 -0.8335999999999999 -0.8615999999999999 -0.22119999999999998 -0.2497333333333333 -0.3933333333333333 -0.5396 -0.5657333333333333 -0.8242666666666666 -0.6221333333333333 -1.2010666666666667 -0.42639999999999995 -2.744533333333333 -1.2102666666666666 -3.8595999999999995 -0.3546666666666667 0.19546666666666668 -0.8166666666666667 0.10319999999999999 -1.1223999999999998 -0.15866666666666665 -0.16506666666666664 0.15 -0.17226666666666668 0.34639999999999993 -0.18533333333333335 0.5548 -0.39599999999999996 -0.39493333333333336 -0.3457333333333333 -1.1412 -0.02933333333333333 -1.5806666666666667 0.12919999999999998 -0.1736 0.28359999999999996 -0.3164 0.456 -0.4421333333333333 0.038933333333333334 -0.028399999999999998 0.05213333333333334 -0.05586666666666666 0.05133333333333333 -0.0996 0.15653333333333333 -0.7022666666666666 0.7685333333333333 -0.9854666666666666 1.4258666666666664 -0.9689333333333333m16.5428 0.6133333333333333c0.7433333333333333 0 1.4407999999999999 0.28786666666666666 1.9653333333333332 0.8109333333333333s0.8133333333333332 1.2193333333333332 0.8133333333333332 1.9605333333333332c0 0.7413333333333334 -0.2889333333333333 1.4373333333333334 -0.8133333333333332 1.9597333333333333v0.0007999999999999999l-1.2026666666666666 1.1993333333333331a2.7733333333333334 2.7733333333333334 0 0 1 -1.1462666666666665 0.6887999999999999l-0.021866666666666666 0.006266666666666667 -0.0077333333333333325 0.021866666666666666a2.733333333333333 2.733333333333333 0 0 1 -0.6319999999999999 0.9743999999999999l-1.2024 1.1993333333333331c-0.5245333333333333 0.5232 -1.2226666666666666 0.8110666666666666 -1.9659999999999997 0.8110666666666666s-1.4407999999999999 -0.288 -1.9653333333333332 -0.8110666666666666c-1.0839999999999999 -1.0809333333333333 -1.0839999999999999 -2.8392 0 -3.9202666666666666l1.2025333333333332 -1.1993333333333331a2.7413333333333334 2.7413333333333334 0 0 1 1.144 -0.6857333333333333l0.02266666666666667 -0.007066666666666666 0.0077333333333333325 -0.021066666666666668a2.76 2.76 0 0 1 0.6335999999999999 -0.9782666666666666l1.2024 -1.1993333333333331c0.5245333333333333 -0.5232 1.2227999999999999 -0.8110666666666666 1.9659999999999997 -0.8110666666666666zm0 1.1953333333333331a1.5733333333333333 1.5733333333333333 0 0 0 -1.1183999999999998 0.4616l-1.2024 1.1993333333333331a1.5746666666666667 1.5746666666666667 0 0 0 -0.4569333333333333 1.2336l0.007066666666666666 0.07626666666666666c0.04306666666666667 0.35359999999999997 0.19866666666666666 0.6725333333333332 0.44986666666666664 0.9222666666666666 0.17333333333333334 0.17279999999999998 0.36439999999999995 0.28186666666666665 0.5961333333333333 0.3581333333333333a1.2 1.2 0 0 1 0.018666666666666665 0.21093333333333333 1.1786666666666665 1.1786666666666665 0 0 1 -0.34786666666666666 0.8405333333333332l-0.07386666666666666 0.07386666666666666c-0.40173333333333333 -0.13706666666666667 -0.7366666666666666 -0.3373333333333333 -1.0392 -0.6389333333333334a2.7466666666666666 2.7466666666666666 0 0 1 -0.7681333333333332 -1.4624l-0.0132 -0.07706666666666666 -0.06146666666666667 0.04906666666666666a1.4666666666666668 1.4666666666666668 0 0 0 -0.11679999999999999 0.10586666666666666l-1.2031999999999998 1.1993333333333331c-0.6164 0.6146666666666667 -0.6164 1.6159999999999999 0 2.2306666666666666 0.3081333333333333 0.30733333333333335 0.7133333333333334 0.46133333333333326 1.1192 0.4614666666666667 0.40573333333333333 0 0.8102666666666667 -0.15413333333333332 1.1183999999999998 -0.4616l1.2025333333333332 -1.1993333333333331c0.6164 -0.6146666666666667 0.6164 -1.6150666666666667 0 -2.2306666666666666a1.5599999999999998 1.5599999999999998 0 0 0 -0.5822666666666666 -0.36653333333333327 1.3333333333333333 1.3333333333333333 0 0 1 -0.018666666666666665 -0.2148c0 -0.34546666666666664 0.1364 -0.6733333333333333 0.38680000000000003 -0.9230666666666667 0.4025333333333333 0.13706666666666667 0.7599999999999999 0.35919999999999996 1.0615999999999999 0.6599999999999999 0.40093333333333336 0.39986666666666665 0.6658666666666666 0.9053333333333333 0.7674666666666666 1.4624l0.014 0.07706666666666666 0.06066666666666666 -0.04973333333333333a1.4666666666666668 1.4666666666666668 0 0 0 0.11826666666666666 -0.10586666666666666l1.2026666666666666 -1.1994666666666665c0.6162666666666666 -0.6146666666666667 0.6170666666666667 -1.6165333333333332 0 -2.231333333333333a1.5733333333333333 1.5733333333333333 0 0 0 -1.1193333333333333 -0.4616Zm-13.297333333333334 6.8755999999999995 -0.0007999999999999999 0.0007999999999999999c-0.10573333333333332 0.4104 -0.13973333333333332 1.1090666666666666 -0.6746666666666666 1.1293333333333333 -0.044 0.2368 0.16373333333333334 0.32599999999999996 0.354 0.24986666666666668 0.18799999999999997 -0.086 0.27746666666666664 0.06773333333333333 0.3409333333333333 0.22093333333333331 0.2902666666666667 0.04226666666666666 0.7192 -0.09666666666666665 0.7354666666666666 -0.4397333333333333 -0.43333333333333335 -0.24893333333333334 -0.5670666666666666 -0.7223999999999999 -0.7549333333333333 -1.1612" strokeWidth="1.3333" fill="#333333"/>
</svg> 