<svg width="16" height="16" viewBox="0 0 16 16" fill="none" xmlns="http://www.w3.org/2000/svg">
<g clip-path="url(#clip0_13732_75616)">
<path d="M14.84 5.02111L10.979 1.16018C10.8468 1.02796 10.6589 0.972888 10.4769 1.01269C10.2943 1.05232 10.1464 1.18068 10.0811 1.35619C9.86082 1.94948 9.80702 2.61379 9.9251 3.24828L6.5 6.22605C4.46281 5.50176 2.52553 6.95468 2.45585 7.00441C2.32517 7.09794 2.24269 7.24346 2.22961 7.40293C2.21609 7.56332 2.27368 7.72064 2.38757 7.83452L5.03719 10.4841L1.09917 14.422C0.966951 14.5542 0.966933 14.7686 1.09917 14.9008C1.16529 14.9669 1.25192 15 1.33858 15C1.42523 15 1.5119 14.9669 1.57799 14.9008L5.51618 10.9628L8.16571 13.6122C8.26868 13.7153 8.40723 13.7723 8.55112 13.7723C8.56629 13.7723 8.58153 13.7716 8.59678 13.7703C8.75691 13.7572 8.90238 13.6747 8.99672 13.5429C9.05339 13.4631 9.34554 13.0306 9.53181 12.3558C9.76269 11.5194 10.0641 10.3182 9.77402 9.5L12.7518 6.07507C13.3865 6.19351 14.0511 6.13954 14.6443 5.91875C14.8195 5.85361 14.9477 5.70568 14.9872 5.52365C15.0272 5.34106 14.9721 5.15316 14.84 5.02111ZM6.16656 10.6559L2.98188 7.47118C3.37826 7.23797 4.86862 6.39028 6.36599 7.00441L10.5218 3.62506C10.3993 3.13024 10.5136 2.26981 10.651 1.78983L14.2104 5.34912C13.7305 5.48685 12.87 5.60105 12.3751 5.47831L8.99672 9.63292C9.6091 11.1259 8.76113 12.6208 8.52887 13.0177L6.07389 10.5628" fill="#333333"/>
<path d="M6.16656 10.6559L2.98188 7.47118C3.37826 7.23797 4.86862 6.39028 6.36599 7.00441L10.5218 3.62506C10.3993 3.13024 10.5136 2.26981 10.651 1.78983L14.2104 5.34912C13.7305 5.48685 12.87 5.60105 12.3751 5.47831L8.99672 9.63292C9.6091 11.1259 8.76113 12.6208 8.52887 13.0177L6.07389 10.5628M14.84 5.02111L10.979 1.16018C10.8468 1.02796 10.6589 0.972888 10.4769 1.01269C10.2943 1.05232 10.1464 1.18068 10.0811 1.35619C9.86082 1.94948 9.80702 2.61379 9.9251 3.24828L6.5 6.22605C4.46281 5.50176 2.52553 6.95468 2.45585 7.00441C2.32517 7.09794 2.24269 7.24346 2.22961 7.40293C2.21609 7.56332 2.27368 7.72064 2.38757 7.83452L5.03719 10.4841L1.09917 14.422C0.966951 14.5542 0.966933 14.7686 1.09917 14.9008C1.16529 14.9669 1.25192 15 1.33858 15C1.42523 15 1.5119 14.9669 1.57799 14.9008L5.51618 10.9628L8.16571 13.6122C8.26868 13.7153 8.40723 13.7723 8.55112 13.7723C8.56629 13.7723 8.58154 13.7716 8.59678 13.7703C8.75691 13.7572 8.90238 13.6747 8.99672 13.5429C9.05339 13.4631 9.34554 13.0306 9.53181 12.3558C9.76269 11.5194 10.0641 10.3182 9.77402 9.5L12.7518 6.07507C13.3865 6.19351 14.0511 6.13954 14.6443 5.91875C14.8195 5.85361 14.9477 5.70568 14.9872 5.52365C15.0272 5.34106 14.9721 5.15316 14.84 5.02111Z" stroke="#333333" strokeWidth="0.8"/>
</g>
<defs>
<clipPath id="clip0_13732_75616">
<rect width="16" height="16" fill="white"/>
</clipPath>
</defs>
</svg>
