<svg width="16" height="16" viewBox="0 0 16 16" fill="none" xmlns="http://www.w3.org/2000/svg">
<path d="M11.3333 0H15.2473C15.6627 0 16 0.337312 16 0.752718V4.66667C13.4244 4.66667 11.3333 2.57561 11.3333 0Z" fill="#333333"/>
<path d="M4.66667 16H0.752719C0.337312 16 -3.6316e-08 15.6627 0 15.2473L3.42168e-07 11.3333C2.57561 11.3333 4.66667 13.4244 4.66667 16Z" fill="#333333"/>
<path fill-rule="evenodd" clip-rule="evenodd" d="M7.98662 15.3333C8.24195 14.4028 8.63 13.522 9.12722 12.711C10.0233 11.2494 11.2739 10.0143 12.7413 9.12259C13.5475 8.63267 14.4191 8.24641 15.3333 7.9832C14.418 7.71959 13.5453 7.335 12.7383 6.84767C11.2726 5.96256 10.0233 4.73852 9.12794 3.28476C8.63031 2.47677 8.24201 1.59782 7.98662 0.666667C7.73089 1.59869 7.34388 2.47844 6.84828 3.28708C5.95814 4.73945 4.71769 5.96245 3.2583 6.84701C2.45364 7.33472 1.58242 7.71955 0.666667 7.9832C1.58134 8.24663 2.45156 8.63314 3.25539 9.12335C4.71671 10.0145 5.95863 11.2484 6.84937 12.7086C7.34451 13.5203 7.73114 14.4018 7.98662 15.3333ZM7.99033 10.8178C8.78478 9.73109 9.74992 8.77513 10.8383 7.98771C9.7505 7.20558 8.78505 6.25574 7.99011 5.17323C7.1994 6.25517 6.23892 7.20519 5.15453 7.98769C6.23971 8.77547 7.20006 9.73159 7.99033 10.8178Z" fill="#333333"/>
</svg>
