<svg width="16" height="16" viewBox="0 0 16 16" fill="none" xmlns="http://www.w3.org/2000/svg">
<g clip-path="url(#clip0_13732_75667)">
<path d="M11.0375 0.448443C11.4042 0.0234109 11.978 -0.0826023 12.3198 0.212115C12.6615 0.506913 12.6415 1.09076 12.2748 1.51583L10.5043 3.56758C10.478 3.59809 10.4496 3.62634 10.4213 3.65352L12.5375 5.44747C12.5742 5.38699 12.618 5.32882 12.6664 5.27266L14.4653 3.18672C14.838 2.75468 15.4175 2.64294 15.7592 2.9377C16.1009 3.23248 16.0762 3.82206 15.7035 4.25411L13.9037 6.34004C13.8583 6.39268 13.809 6.43967 13.7582 6.48262L15.2875 7.77852C15.5902 8.03514 15.6271 8.48847 15.3705 8.79122L11.6528 13.177C11.0914 13.8391 10.2903 14.251 9.42523 14.3225C8.97399 14.3597 8.52453 14.3021 8.10394 14.1594L7.71331 14.6467C7.17628 15.3146 6.35492 15.7096 5.43109 15.7443C4.50741 15.779 3.55588 15.4508 2.78656 14.8322C2.01736 14.2136 1.49295 13.355 1.32855 12.4455C1.16422 11.5359 1.37371 10.6495 1.91058 9.98165L2.30609 9.48946C2.33886 9.44877 2.37606 9.41345 2.41644 9.38301C2.18019 8.97056 2.03437 8.5074 1.99456 8.02462C1.92326 7.1594 2.1989 6.30115 2.76019 5.63887L6.47796 1.25313C6.7345 0.950512 7.18791 0.912869 7.49066 1.16915L9.18499 2.60567C9.20997 2.56971 9.23757 2.53435 9.26702 2.5002L11.0375 0.448443ZM3.18402 11.0051C2.88276 11.3797 2.76565 11.8775 2.85784 12.3879C2.9501 12.8981 3.24463 13.3797 3.6762 13.7268C4.10783 14.0738 4.64142 14.258 5.1596 14.2385C5.67781 14.219 6.13863 13.9969 6.43988 13.6223L6.71234 13.2815L3.52581 10.5793L3.18402 11.0051ZM3.85687 6.56758C3.5419 6.93913 3.38717 7.42101 3.42718 7.90645C3.46719 8.39178 3.69835 8.84151 4.06976 9.15645L7.9682 12.4611C8.33974 12.7761 8.82163 12.9308 9.30706 12.8908C9.79238 12.8507 10.2422 12.6187 10.5571 12.2473L13.81 8.41036L7.1098 2.73067L3.85687 6.56758Z" fill="#333333"/>
</g>
<defs>
<clipPath id="clip0_13732_75667">
<rect width="16" height="16" fill="white"/>
</clipPath>
</defs>
</svg>
