<svg width="16" height="16" viewBox="0 0 16 16" fill="none" xmlns="http://www.w3.org/2000/svg">
<path d="M3.51217 6.44007C2.4496 7.26298 0.111206 7.44837 0.111206 7.71131C0.111206 7.97424 2.42696 8.06097 3.51217 8.7231C4.80829 9.51391 4.44701 14 5.0001 14C5.55318 14 5.27769 9.52265 6.48802 8.7231C7.41681 8.10953 9.88898 7.94834 9.88898 7.71131C9.88898 7.47427 7.4059 7.21294 6.48802 6.44007C4.85794 5.06754 5.60652 3 4.92838 3C4.25025 3 5.24192 5.10047 3.51217 6.44007Z" fill="#333333"/>
<path d="M10.587 3.088C9.93492 3.61264 8.5 3.83604 8.5 4.00367C8.5 4.1713 9.92103 4.22659 10.587 4.64873C11.3823 5.15291 11.1606 7 11.5 7C11.8394 7 11.6703 5.15848 12.413 4.64873C12.983 4.25755 14.5 4.15479 14.5 4.00367C14.5 3.85255 12.9763 3.58074 12.413 3.088C11.4128 2.21295 11.9161 1 11.5 1C11.0839 1 11.6484 2.23395 10.587 3.088Z" fill="#333333"/>
<path d="M10.1059 11.4013C9.5022 11.891 9 11.8469 9 12.0034C9 12.1598 9.40788 12.006 10.0245 12.4C10.7609 12.8705 10.6361 14 10.9503 14C11.2646 14 11.1886 12.8757 11.8762 12.4C12.4039 12.0348 13 12.1444 13 12.0034C13 11.8623 12.3182 11.8612 11.7967 11.4013C10.8705 10.5846 11.1765 10 10.9503 10C10.7242 10 11.0887 10.6042 10.1059 11.4013Z" fill="#333333"/>
</svg>
