<svg width="16" height="16" viewBox="0 0 16 16" fill="none" xmlns="http://www.w3.org/2000/svg">
<path fill-rule="evenodd" clip-rule="evenodd" d="M10.8529 2.08636C10.5963 2.07143 10.3374 2.08692 10.0817 2.13351C9.43172 2.25194 8.83329 2.56563 8.36614 3.03278C7.89899 3.49993 7.5853 4.09836 7.46688 4.74831C7.34845 5.39826 7.43092 6.06887 7.70329 6.67076C7.83199 6.95517 7.77106 7.28956 7.55033 7.5103L2.94366 12.117C2.81909 12.2415 2.74911 12.4105 2.74911 12.5866C2.74911 12.7628 2.81909 12.9317 2.94366 13.0563C3.06822 13.1809 3.23717 13.2508 3.41333 13.2508C3.58949 13.2508 3.75843 13.1809 3.883 13.0563L8.48967 8.44964C8.7104 8.2289 9.04479 8.16797 9.3292 8.29667C9.9311 8.56904 10.6017 8.65151 11.2517 8.53309C11.9016 8.41466 12.5 8.10097 12.9672 7.63382C13.4343 7.16667 13.748 6.56824 13.8664 5.91829C13.913 5.66258 13.9285 5.40368 13.9136 5.14702L12.325 6.7356C12.0602 6.99517 11.7041 7.14054 11.3333 7.14054C10.9625 7.14054 10.6065 6.99515 10.3417 6.73557L10.3363 6.73032L9.26436 5.65833C9.00479 5.39351 8.85942 5.03745 8.85942 4.66663C8.85942 4.29582 9.00482 3.93978 9.26439 3.67497L9.26964 3.66961L10.8529 2.08636ZM9.81279 0.657809C10.7627 0.48473 11.7428 0.60526 12.6225 1.00334C12.8468 1.10484 13.007 1.30998 13.0512 1.55219C13.0953 1.79441 13.0178 2.04287 12.8437 2.21696L10.394 4.66663L11.3333 5.60597L13.783 3.1563C13.9571 2.98221 14.2055 2.90465 14.4478 2.94878C14.69 2.99291 14.8951 3.15312 14.9966 3.37743C15.3947 4.25712 15.5152 5.23724 15.3422 6.18717C15.1691 7.1371 14.7106 8.01172 14.0278 8.69448C13.3451 9.37724 12.4705 9.83571 11.5205 10.0088C10.7454 10.15 9.95022 10.0958 9.20588 9.85475L4.94366 14.117C4.53779 14.5228 3.98731 14.7508 3.41333 14.7508C2.83934 14.7508 2.28887 14.5228 1.883 14.117C1.47713 13.7111 1.24911 13.1606 1.24911 12.5866C1.24911 12.0126 1.47713 11.4622 1.883 11.0563L6.14522 6.79409C5.9042 6.04974 5.84995 5.25454 5.99117 4.47943C6.16425 3.5295 6.62272 2.65488 7.30548 1.97212C7.98824 1.28936 8.86286 0.830888 9.81279 0.657809Z" fill="#333333"/>
<path d="M2.32844 2.74525C1.83833 3.12443 0.759766 3.20985 0.759766 3.33101C0.759766 3.45216 1.82789 3.49212 2.32844 3.79721C2.92627 4.1616 2.75962 6.22867 3.01473 6.22867C3.26984 6.22867 3.14277 4.16563 3.70103 3.79721C4.12943 3.51449 5.2697 3.44022 5.2697 3.33101C5.2697 3.22179 4.1244 3.10137 3.70103 2.74525C2.94917 2.11282 3.29444 1.16016 2.98166 1.16016C2.66887 1.16016 3.12627 2.128 2.32844 2.74525Z" fill="#333333"/>
<path d="M11.3251 12.4451C10.9983 12.7078 10.2793 12.8196 10.2793 12.9035C10.2793 12.9874 10.9914 13.0151 11.3251 13.2264C11.7236 13.4788 11.6125 14.4035 11.7826 14.4035C11.9527 14.4035 11.868 13.4816 12.2401 13.2264C12.5257 13.0306 13.2859 12.9792 13.2859 12.9035C13.2859 12.8279 12.5224 12.6918 12.2401 12.4451C11.7389 12.0071 11.9911 11.3999 11.7826 11.3999C11.5741 11.3999 11.857 12.0176 11.3251 12.4451Z" fill="#333333"/>
</svg>
