<svg width="16" height="16" viewBox="0 0 16 16" fill="none" xmlns="http://www.w3.org/2000/svg">
<path d="M8 15C8 15 14.125 12.2 14.125 8V3.1L8 1L1.875 3.1V8C1.875 12.2 8 15 8 15Z" fill="white" stroke="#333333" stroke-width="1.5" stroke-linecap="round" stroke-linejoin="round"/>
<path fill-rule="evenodd" clip-rule="evenodd" d="M11.275 5.40853C11.575 5.6863 11.575 6.13667 11.275 6.41444L7.51887 9.89186C7.37479 10.0253 7.17937 10.1002 6.97561 10.1002C6.77185 10.1002 6.57643 10.0253 6.43234 9.89186L4.72503 8.31122C4.42499 8.03344 4.42499 7.58308 4.72503 7.3053C5.02506 7.02752 5.51152 7.02752 5.81156 7.3053L6.97561 8.38299L10.1884 5.40853C10.4885 5.13075 10.9749 5.13075 11.275 5.40853Z" fill="#333333"/>
</svg>
